<?xml version="1.0" standalone="no"?>
<!DOCTYPE svg PUBLIC "-//W3C//DTD SVG 20010904//EN"
 "http://www.w3.org/TR/2001/REC-SVG-20010904/DTD/svg10.dtd">
<svg version="1.0" xmlns="http://www.w3.org/2000/svg"
 width="332.000000pt" height="332.000000pt" viewBox="0 0 332.000000 332.000000"
 preserveAspectRatio="xMidYMid meet">

<g transform="translate(0.000000,332.000000) scale(0.100000,-0.100000)"
fill="#000000" stroke="none">
<path d="M1813 2636 c-67 -110 -128 -209 -135 -218 -12 -16 -51 -10 -543 92
-291 61 -532 109 -536 108 -3 -2 91 -507 210 -1122 119 -616 217 -1113 219
-1104 2 9 -29 338 -69 733 -39 394 -69 718 -68 720 2 2 150 13 329 24 179 12
351 24 383 27 l57 6 0 135 0 135 140 330 c77 182 139 332 138 334 -2 1 -58
-89 -125 -200z"/>
<path d="M1993 2824 c4 -6 83 -130 177 -275 l171 -264 -3 -95 -3 -95 114 -10
c77 -7 114 -7 117 0 1 5 8 51 14 100 6 50 13 102 16 116 5 25 2 26 -122 60
l-127 34 -165 205 c-155 193 -203 250 -189 224z"/>
<path d="M1836 2320 c-59 -272 -109 -496 -110 -496 0 -1 -117 -7 -258 -14
l-258 -13 0 -31 c0 -17 9 -139 20 -271 l19 -240 -94 -444 c-52 -245 -93 -446
-92 -448 2 -1 69 216 150 484 81 268 149 488 151 491 3 2 103 29 223 59 120
30 222 58 227 63 9 9 138 1298 133 1335 -1 11 -51 -203 -111 -475z"/>
<path d="M1981 2807 c-1 -5 45 -176 100 -380 l101 -371 -11 -150 c-6 -83 -11
-158 -11 -167 0 -14 14 -14 141 3 78 9 143 19 145 21 7 7 44 260 39 265 -3 3
-51 8 -107 11 l-102 6 -143 375 c-164 430 -151 397 -152 387z"/>
<path d="M2215 1679 c-110 -15 -203 -28 -206 -28 -7 -1 -23 -390 -17 -397 6
-6 382 116 388 127 7 11 43 320 38 323 -1 1 -93 -10 -203 -25z"/>
<path d="M1885 1390 c-16 -4 -110 -27 -207 -50 l-178 -42 0 -158 0 -158 -156
-238 c-203 -310 -270 -415 -243 -384 12 14 133 167 270 341 l248 316 92 32
c50 18 116 41 145 52 l53 20 5 52 c10 94 14 227 7 226 -3 0 -19 -4 -36 -9z"/>
</g>
</svg>
